<svg width="120" height="120" viewBox="0 0 120 120" fill="none" xmlns="http://www.w3.org/2000/svg">
<path d="M0 23.1303C0 23.1303 0.876849 96.7202 0.511841 106.12C-0.00199854 119.353 3.97941 118.562 17.5568 119.65C31.012 120.729 111.291 119.356 117.95 114.943C122.789 111.737 117.582 34.9428 117.288 23.1303C116.934 8.90219 96.2229 13.932 72.7055 13.5984C40.539 15.6867 0.511841 8.55896 0 23.1303Z" fill="#005BBD"/>
<path d="M85.5539 70.1125C96.2908 69.1019 104.692 60.0628 104.692 49.0615C104.692 37.3835 95.2254 27.9166 83.5474 27.9166C82.5168 27.9166 81.5034 27.9904 80.5122 28.1328C79.3751 15.7211 68.9372 6 56.2288 6C45.3426 6 36.1225 13.1332 32.9875 22.9806C32.8633 22.9786 32.739 22.9777 32.6144 22.9777C19.5725 22.9777 9 33.5502 9 46.5921C9 59.5824 19.4892 70.1229 32.4601 70.206L32.6144 70.2065H85.5539V70.1125Z" fill="white"/>
</svg>
